<svg width="400" height="400" viewBox="0 0 400 400" fill="none" xmlns="http://www.w3.org/2000/svg">
<g clip-path="url(#clip0_13_30)">
<rect width="400" height="400" fill="#2563EB"/>
<path d="M136.688 260V140.727H220.551V166.818H169.068V187.318H215.426V213.409H169.068V260H136.688ZM244.793 261.864C240.289 261.864 236.426 260.291 233.203 257.146C230.02 253.963 228.447 250.099 228.486 245.557C228.447 241.131 230.02 237.345 233.203 234.2C236.426 231.055 240.289 229.483 244.793 229.483C249.064 229.483 252.83 231.055 256.091 234.2C259.391 237.345 261.061 241.131 261.1 245.557C261.061 248.585 260.265 251.342 258.712 253.827C257.198 256.273 255.218 258.233 252.772 259.709C250.326 261.145 247.666 261.864 244.793 261.864Z" fill="white"/>
</g>
<defs>
<clipPath id="clip0_13_30">
<path d="M0 200C0 89.5431 89.5431 0 200 0C310.457 0 400 89.5431 400 200C400 310.457 310.457 400 200 400C89.5431 400 0 310.457 0 200Z" fill="white"/>
</clipPath>
</defs>
</svg>
